<svg width="58" height="58" viewBox="0 0 58 58" fill="none" xmlns="http://www.w3.org/2000/svg">
<path d="M10.3422 46.314C13.2725 41.7695 18.5706 35.9273 27.0142 29.3928C17.099 25.4327 10.3984 21.273 6.33117 17.7097C4.19156 15.8352 2.73969 14.09 1.94943 12.5874C1.19825 11.1591 0.881502 9.60209 1.73709 8.46742C2.59267 7.33276 4.17679 7.20903 5.7566 7.53841C7.41857 7.88492 9.49579 8.80079 11.8865 10.3423C16.431 13.2726 22.2732 18.5707 28.8077 27.0143C32.7678 17.0991 36.9275 10.3985 40.4908 6.33126C42.3653 4.19166 44.1105 2.73979 45.6131 1.94953C47.0413 1.19834 48.5984 0.881596 49.7331 1.73718C50.8677 2.59276 50.9915 4.17689 50.6621 5.75669C50.3156 7.41866 49.3997 9.49589 47.8582 11.8866C44.9279 16.4311 39.6298 22.2733 31.1862 28.8078C41.1014 32.7679 47.802 36.9276 51.8692 40.4909C54.0088 42.3654 55.4607 44.1106 56.251 45.6132C57.0022 47.0414 57.3189 48.5985 56.4633 49.7332C55.6077 50.8678 54.0236 50.9916 52.4438 50.6622C50.7818 50.3157 48.7046 49.3998 46.3139 47.8583C41.7694 44.928 35.9272 39.6299 29.3927 31.1863C25.4326 41.1015 21.2729 47.8021 17.7096 51.8693C15.8351 54.0089 14.0899 55.4608 12.5873 56.2511C11.1591 57.0022 9.60199 57.319 8.46733 56.4634C7.33266 55.6078 7.20894 54.0237 7.53831 52.4439C7.88482 50.7819 8.80069 48.7047 10.3422 46.314Z" fill="#DCF7E7" stroke="black" stroke-width="2"/>
</svg>
