<svg width="200" height="200" viewBox="0 0 200 200" fill="none" xmlns="http://www.w3.org/2000/svg">
<path d="M30.77 29.2566C30.5534 29.2101 30.0003 29.135 29.5674 29.5686C29.1352 30.0014 29.2101 30.5535 29.2566 30.7702C29.3137 31.0364 29.4331 31.3012 29.557 31.5349C29.8118 32.0155 30.2211 32.6123 30.731 33.2863C31.7601 34.6465 33.3134 36.4695 35.1997 38.5862C38.9776 42.8254 44.1637 48.3232 49.3417 53.8114L49.4071 53.8807C54.5703 59.3533 59.7199 64.8114 63.4855 69.0308C65.3787 71.1522 66.9046 72.9412 67.9033 74.2529C68.0178 74.4033 68.124 74.5457 68.222 74.6801C68.069 74.6141 67.9062 74.5418 67.7338 74.4633C66.2331 73.7796 64.1504 72.6875 61.6622 71.311C56.7165 68.5748 50.2587 64.7649 43.7827 60.9443L43.6878 60.8883C37.1891 57.0543 30.6793 53.2146 25.7086 50.4697C23.2267 49.0991 21.105 47.9883 19.5506 47.2862C18.7804 46.9384 18.1076 46.6715 17.5824 46.5297C17.3271 46.4607 17.0422 46.403 16.7698 46.4064C16.5476 46.4092 15.9927 46.4591 15.6669 46.977C15.341 47.4948 15.536 48.0166 15.6297 48.2181C15.7444 48.4652 15.9197 48.697 16.0923 48.8974C16.4474 49.3096 16.979 49.8007 17.6258 50.3446C18.9311 51.4423 20.8504 52.8747 23.1595 54.5195C27.7843 57.8136 34.0617 62.0218 40.3291 66.2227L40.3912 66.2643C46.6465 70.4571 52.8867 74.6398 57.4994 77.9211C59.8164 79.5693 61.7015 80.9751 62.9665 82.0329C63.1151 82.1572 63.2534 82.2752 63.3815 82.387C63.2144 82.3563 63.0361 82.3216 62.8463 82.2826C61.2311 81.9511 58.9574 81.351 56.225 80.5638C50.7958 78.9995 43.6545 76.7255 36.4926 74.4449L36.3801 74.4091C29.1905 72.1197 21.9888 69.8273 16.5312 68.2598C13.8063 67.4771 11.4902 66.8675 9.81814 66.5302C8.98966 66.3631 8.27406 66.2532 7.73003 66.2326C7.46554 66.2225 7.17461 66.2301 6.90949 66.2947C6.69209 66.3477 6.16435 66.5214 5.96286 67.0977C5.76142 67.6739 6.06583 68.1386 6.20281 68.3155C6.36985 68.5313 6.59263 68.7185 6.80574 68.8755C7.24407 69.1983 7.8721 69.5584 8.62411 69.9441C10.1418 70.7224 12.3329 71.6891 14.9514 72.7753C20.1958 74.9508 27.2558 77.6466 34.3044 80.3375L34.3695 80.3623C41.4061 83.0487 48.4261 85.7287 53.6573 87.895C56.2844 88.983 58.4362 89.9315 59.9056 90.6799C60.0819 90.7697 60.2463 90.8555 60.3987 90.9373C60.2262 90.9451 60.0414 90.9514 59.844 90.9561C58.1958 90.9949 55.8458 90.9191 53.0068 90.7632C47.3638 90.4533 39.8922 89.8336 32.3995 89.2122L32.2896 89.203C24.7706 88.5794 17.2389 87.9556 11.569 87.6487C8.73805 87.4955 6.34402 87.4197 4.63854 87.4655C3.7935 87.4882 3.07114 87.5416 2.53586 87.6436C2.27558 87.6933 1.9935 87.7661 1.74937 87.8889C1.54832 87.99 1.07526 88.2775 1.00729 88.8824C0.93928 89.4877 1.33727 89.873 1.51111 90.0161C1.7221 90.1899 1.98117 90.3232 2.22402 90.4291C2.72347 90.6468 3.41617 90.8583 4.23529 91.067C5.88846 91.4882 8.24017 91.9428 11.0352 92.4185C16.6331 93.3711 24.1172 94.4257 31.589 95.478L31.6549 95.4873C39.115 96.538 46.5576 97.5863 52.1409 98.5331C54.9444 99.0085 57.2533 99.4541 58.8522 99.8568C59.0457 99.9055 59.2265 99.9531 59.3946 99.9993C59.2264 100.046 59.0455 100.094 58.8518 100.142C57.2531 100.547 54.9446 100.994 52.1415 101.472C46.5426 102.425 39.0735 103.482 31.5921 104.54L31.4312 104.562C24.0137 105.611 16.5974 106.659 11.0396 107.603C8.24451 108.077 5.89307 108.53 4.24007 108.947C3.42094 109.154 2.72902 109.363 2.23038 109.577C1.98806 109.681 1.72979 109.812 1.51911 109.983C1.35017 110.119 0.939214 110.503 1.00712 111.116C1.07508 111.729 1.56065 112.014 1.75562 112.11C1.99863 112.23 2.2794 112.301 2.53863 112.349C3.07211 112.449 3.79299 112.5 4.63745 112.522C6.3416 112.565 8.73477 112.489 11.5656 112.336C17.2352 112.03 24.7675 111.412 32.2876 110.795L32.3573 110.789C39.8644 110.173 47.3539 109.558 53.0077 109.25C55.847 109.095 58.1976 109.019 59.8463 109.057C60.0297 109.061 60.2024 109.067 60.3644 109.073C60.2216 109.15 60.0685 109.229 59.9052 109.312C58.435 110.059 56.2829 111.007 53.6559 112.095C48.4368 114.257 41.4377 116.933 34.4182 119.618L34.3051 119.661C27.2574 122.356 20.1984 125.057 14.9542 127.234C12.3358 128.321 10.1449 129.288 8.62716 130.065C7.87507 130.451 7.24733 130.81 6.8092 131.131C6.59626 131.287 6.37371 131.473 6.20652 131.686C6.07157 131.859 5.75988 132.325 5.96292 132.906C6.16599 133.486 6.70036 133.656 6.91354 133.707C7.17762 133.77 7.46752 133.777 7.73128 133.766C8.27399 133.744 8.98856 133.633 9.8166 133.465C11.4876 133.126 13.8032 132.516 16.528 131.733C21.9854 130.166 29.1877 127.876 36.3782 125.589L36.4529 125.565C43.6282 123.283 50.786 121.007 56.2249 119.441C58.9572 118.654 61.231 118.054 62.8461 117.722C63.0285 117.684 63.2004 117.651 63.3618 117.621C63.2379 117.729 63.1044 117.842 62.9614 117.962C61.6958 119.019 59.8104 120.424 57.4935 122.072C52.89 125.347 46.6663 129.521 40.4247 133.708L40.3261 133.774C34.06 137.977 27.7842 142.187 23.1602 145.482C20.8514 147.127 18.9325 148.56 17.6272 149.657C16.9804 150.201 16.4489 150.692 16.0938 151.103C15.9211 151.303 15.7459 151.535 15.6309 151.781C15.5377 151.981 15.3402 152.504 15.6668 153.023C15.9935 153.542 16.5507 153.59 16.7712 153.593C17.043 153.596 17.3274 153.538 17.5824 153.469C18.107 153.326 18.7793 153.059 19.5492 152.711C21.1031 152.008 23.2246 150.897 25.7064 149.527C30.6769 146.782 37.1872 142.943 43.6865 139.109L43.7524 139.07C50.2386 135.245 56.7091 131.429 61.6626 128.689C64.1509 127.313 66.2338 126.221 67.7344 125.537C67.9056 125.459 68.0672 125.388 68.2193 125.322C68.1218 125.455 68.0163 125.597 67.9026 125.746C66.9037 127.058 65.3777 128.847 63.4845 130.968C59.7209 135.186 54.5749 140.641 49.4145 146.112L49.3416 146.189C44.164 151.678 38.9783 157.176 35.2005 161.416C33.3143 163.533 31.761 165.356 30.7318 166.717C30.2218 167.391 29.8125 167.988 29.5576 168.468C29.4337 168.702 29.3142 168.966 29.2569 169.232C29.2104 169.449 29.1349 170.001 29.5674 170.435C30.0003 170.868 30.5534 170.793 30.77 170.747C31.0362 170.689 31.301 170.57 31.5345 170.446C32.0149 170.191 32.6116 169.782 33.2855 169.272C34.6454 168.243 36.4682 166.69 38.5848 164.804C42.8239 161.026 48.3218 155.84 53.8102 150.662L53.8716 150.604C59.347 145.438 64.8086 140.285 69.0303 136.518C71.1518 134.625 72.941 133.099 74.2528 132.1C74.4032 131.985 74.5457 131.879 74.6801 131.781C74.6141 131.934 74.5418 132.097 74.4633 132.269C73.7796 133.77 72.6876 135.853 71.311 138.341C68.5755 143.285 64.7668 149.74 60.9472 156.214L60.8883 156.314C57.0543 162.813 53.2146 169.322 50.4697 174.293C49.0991 176.775 47.9883 178.897 47.2862 180.452C46.9384 181.222 46.6715 181.895 46.5297 182.42C46.4607 182.676 46.403 182.961 46.4064 183.233C46.4092 183.455 46.4591 184.01 46.9761 184.336C47.4936 184.662 48.0157 184.468 48.2176 184.374C48.4648 184.259 48.6968 184.084 48.8972 183.912C49.3095 183.557 49.8006 183.025 50.3446 182.378C51.4423 181.073 52.8747 179.154 54.5195 176.845C57.8136 172.22 62.0219 165.943 66.2228 159.675L66.2692 159.606C70.4604 153.353 74.6411 147.115 77.9211 142.504C79.5693 140.187 80.9752 138.302 82.0329 137.037C82.1572 136.888 82.2752 136.75 82.3869 136.622C82.3563 136.789 82.3216 136.967 82.2826 137.157C81.9512 138.772 81.351 141.045 80.5638 143.778C78.9985 149.21 76.7226 156.356 74.4404 163.522L74.4088 163.621C72.1192 170.811 69.8265 178.012 68.2585 183.469C67.4756 186.194 66.8657 188.51 66.5281 190.182C66.3608 191.01 66.2508 191.726 66.2299 192.27C66.2198 192.534 66.2272 192.825 66.2916 193.09C66.3444 193.307 66.5176 193.835 67.0941 194.037L67.0944 194.037C67.675 194.24 68.1411 193.928 68.3138 193.793C68.5276 193.626 68.7134 193.403 68.8693 193.19C69.1901 192.752 69.5486 192.124 69.9332 191.372C70.7092 189.854 71.6745 187.663 72.76 185.044C74.928 179.814 77.6158 172.779 80.3011 165.751L80.3234 165.692C83.0198 158.635 85.7124 151.588 87.8876 146.342C88.9767 143.715 89.9262 141.564 90.6753 140.094C90.7656 139.917 90.8519 139.752 90.9342 139.599C90.942 139.772 90.9483 139.958 90.953 140.156C90.992 141.804 90.9162 144.155 90.7605 146.994C90.4509 152.637 89.8316 160.11 89.2105 167.603L89.2015 167.712C88.5782 175.231 87.9548 182.763 87.6482 188.432C87.4951 191.263 87.4195 193.657 87.4654 195.362C87.4881 196.207 87.5415 196.93 87.6436 197.465C87.6933 197.725 87.7661 198.007 87.889 198.251C87.9903 198.452 88.2782 198.926 88.8836 198.993C89.4886 199.06 89.8735 198.662 90.0164 198.488C90.19 198.277 90.3233 198.018 90.4291 197.775C90.6468 197.276 90.8584 196.583 91.0671 195.764C91.4883 194.11 91.9429 191.759 92.4185 188.964C93.3711 183.365 94.4257 175.881 95.478 168.41L95.487 168.346C96.5378 160.885 97.5862 153.442 98.5331 147.859C99.0085 145.055 99.4541 142.747 99.8568 141.148C99.9055 140.954 99.953 140.774 99.9993 140.606C100.046 140.774 100.093 140.955 100.142 141.148C100.546 142.747 100.994 145.055 101.471 147.859C102.425 153.457 103.481 160.927 104.538 168.408L104.561 168.567C105.609 175.985 106.657 183.402 107.6 188.96C108.074 191.755 108.527 194.107 108.944 195.76C109.151 196.579 109.36 197.271 109.574 197.77C109.678 198.012 109.809 198.27 109.979 198.481C110.116 198.65 110.5 199.061 111.113 198.993C111.726 198.925 112.011 198.439 112.107 198.244C112.227 198.001 112.298 197.721 112.346 197.461C112.445 196.928 112.497 196.207 112.518 195.363C112.562 193.658 112.485 191.265 112.333 188.434C112.027 182.765 111.409 175.233 110.792 167.712L110.786 167.643C110.17 160.136 109.555 152.646 109.247 146.992C109.092 144.153 109.016 141.802 109.054 140.154C109.058 139.97 109.063 139.798 109.07 139.636C109.146 139.778 109.226 139.932 109.309 140.095C110.055 141.565 111.003 143.717 112.091 146.344C114.253 151.563 116.93 158.562 119.614 165.581L119.658 165.695C122.353 172.743 125.054 179.802 127.231 185.046C128.318 187.664 129.285 189.855 130.062 191.373C130.447 192.125 130.806 192.753 131.127 193.191C131.283 193.404 131.469 193.626 131.683 193.793C131.856 193.928 132.322 194.24 132.902 194.037C133.483 193.834 133.653 193.3 133.704 193.086C133.767 192.822 133.774 192.532 133.763 192.269C133.741 191.726 133.63 191.011 133.462 190.183C133.123 188.512 132.513 186.197 131.73 183.472C130.163 178.015 127.873 170.812 125.586 163.622L125.562 163.548C123.28 156.373 121.004 149.214 119.438 143.775C118.651 141.043 118.051 138.769 117.719 137.154C117.681 136.972 117.647 136.8 117.618 136.638C117.725 136.762 117.839 136.896 117.958 137.039C119.015 138.304 120.421 140.19 122.069 142.507C125.343 147.109 129.515 153.33 133.7 159.57L133.771 159.675C137.973 165.941 142.184 172.217 145.479 176.841C147.124 179.15 148.557 181.069 149.654 182.374C150.198 183.021 150.689 183.552 151.1 183.907C151.3 184.08 151.532 184.255 151.778 184.37C151.979 184.463 152.502 184.66 153.021 184.333C153.539 184.006 153.587 183.449 153.59 183.229C153.593 182.957 153.535 182.672 153.465 182.417C153.323 181.892 153.056 181.22 152.708 180.45C152.005 178.896 150.894 176.774 149.524 174.292C146.778 169.322 142.939 162.811 139.106 156.312L139.063 156.24C135.239 149.756 131.425 143.288 128.686 138.337C127.31 135.849 126.218 133.766 125.534 132.265C125.456 132.094 125.384 131.933 125.319 131.781C125.452 131.878 125.594 131.984 125.743 132.097C127.055 133.096 128.844 134.622 130.965 136.515C135.183 140.28 140.64 145.427 146.111 150.588L146.186 150.658C151.675 155.836 157.173 161.022 161.413 164.799C163.53 166.686 165.353 168.239 166.713 169.268C167.388 169.778 167.984 170.188 168.465 170.442C168.699 170.566 168.963 170.686 169.229 170.743C169.446 170.79 169.998 170.865 170.431 170.433C170.865 170 170.79 169.447 170.743 169.23C170.686 168.964 170.567 168.699 170.443 168.466C170.188 167.985 169.779 167.388 169.269 166.715C168.24 165.355 166.687 163.532 164.8 161.415C161.022 157.176 155.836 151.678 150.658 146.19L150.598 146.126C145.433 140.651 140.281 135.191 136.515 130.97C134.621 128.848 133.095 127.059 132.097 125.747C131.982 125.597 131.876 125.454 131.778 125.32C131.931 125.386 132.094 125.458 132.266 125.537C133.767 126.22 135.849 127.312 138.337 128.689C143.281 131.424 149.736 135.233 156.21 139.052L156.311 139.112C162.81 142.946 169.319 146.785 174.29 149.53C176.772 150.901 178.894 152.012 180.449 152.714C181.219 153.062 181.892 153.329 182.417 153.47C182.673 153.539 182.958 153.597 183.23 153.594C183.452 153.591 184.007 153.541 184.333 153.024C184.659 152.506 184.465 151.984 184.371 151.782C184.256 151.535 184.081 151.303 183.908 151.103C183.553 150.691 183.022 150.199 182.375 149.655C181.07 148.558 179.151 147.125 176.842 145.481C172.217 142.186 165.94 137.978 159.672 133.777L159.604 133.732C153.351 129.54 147.113 125.359 142.501 122.079C140.184 120.431 138.299 119.025 137.034 117.967C136.885 117.843 136.747 117.725 136.619 117.613C136.786 117.644 136.964 117.678 137.154 117.717C138.769 118.049 141.042 118.649 143.775 119.436C149.207 121.002 156.353 123.278 163.519 125.56L163.618 125.591C170.807 127.881 178.009 130.174 183.466 131.742C186.191 132.524 188.507 133.134 190.179 133.472C191.007 133.639 191.723 133.749 192.266 133.77C192.531 133.78 192.822 133.773 193.087 133.708C193.304 133.656 193.832 133.482 194.034 132.906C194.236 132.329 193.931 131.864 193.794 131.688C193.627 131.472 193.404 131.285 193.191 131.128C192.753 130.805 192.125 130.446 191.373 130.06C189.855 129.282 187.664 128.315 185.045 127.229C179.801 125.054 172.741 122.358 165.692 119.667L165.639 119.647C158.598 116.958 151.574 114.276 146.34 112.109C143.712 111.021 141.561 110.072 140.091 109.323C139.915 109.234 139.75 109.148 139.598 109.066C139.77 109.058 139.955 109.052 140.153 109.047C141.801 109.008 144.151 109.084 146.991 109.24C152.634 109.549 160.107 110.168 167.6 110.79L167.708 110.799C175.228 111.422 182.759 112.045 188.429 112.352C191.26 112.505 193.654 112.581 195.359 112.535C196.204 112.512 196.926 112.458 197.462 112.356C197.722 112.307 198.004 112.234 198.248 112.111C198.449 112.01 198.922 111.722 198.99 111.116C199.057 110.511 198.659 110.127 198.485 109.984C198.274 109.81 198.015 109.677 197.772 109.571C197.273 109.353 196.58 109.142 195.761 108.933C194.107 108.512 191.755 108.057 188.96 107.582C183.362 106.629 175.878 105.574 168.407 104.522L168.342 104.513C160.882 103.462 153.439 102.414 147.856 101.467C145.052 100.992 142.743 100.546 141.145 100.143C140.952 100.095 140.772 100.047 140.604 100.001C140.773 99.9547 140.954 99.9068 141.148 99.8577C142.747 99.4537 145.055 99.0064 147.859 98.529C153.457 97.5754 160.927 96.519 168.408 95.4619L168.569 95.4391C175.987 94.3912 183.403 93.3434 188.96 92.4001C191.755 91.9257 194.107 91.4734 195.76 91.056C196.579 90.8492 197.271 90.6402 197.77 90.4259C198.012 90.3218 198.27 90.1909 198.481 90.0207C198.65 89.8841 199.061 89.4998 198.993 88.8871C198.925 88.2739 198.439 87.9891 198.244 87.8929C198.001 87.7731 197.721 87.7023 197.461 87.654C196.928 87.5547 196.207 87.503 195.363 87.4815C193.658 87.4382 191.265 87.5145 188.434 87.6672C182.765 87.9729 175.233 88.5908 167.712 89.2082L167.643 89.2139C160.136 89.8303 152.646 90.4452 146.992 90.7533C144.153 90.908 141.802 90.9838 140.154 90.9463C139.97 90.9421 139.798 90.9366 139.636 90.9297C139.778 90.8537 139.932 90.7741 140.095 90.6912C141.565 89.9446 143.717 88.9967 146.344 87.9085C151.563 85.7467 158.563 83.0699 165.582 80.3853L165.695 80.3421C172.743 77.6467 179.802 74.9462 185.046 72.7689C187.664 71.6817 189.855 70.7149 191.373 69.9378C192.125 69.5527 192.753 69.1937 193.191 68.8726C193.404 68.7165 193.626 68.5307 193.794 68.3168C193.928 68.1441 194.24 67.678 194.037 67.0976C193.834 66.517 193.3 66.3469 193.087 66.296C192.822 66.233 192.533 66.2265 192.269 66.2372C191.726 66.2594 191.011 66.3701 190.183 66.538C188.512 66.8768 186.197 67.487 183.472 68.2698C178.015 69.8374 170.812 72.1274 163.622 74.4142L163.546 74.4385C156.371 76.7203 149.214 78.9965 143.775 80.5624C141.043 81.3491 138.769 81.9492 137.154 82.2815C136.972 82.319 136.8 82.3526 136.638 82.3825C136.762 82.2747 136.896 82.1611 137.039 82.0417C138.304 80.9847 140.19 79.5792 142.507 77.9311C147.11 74.6569 153.332 70.4837 159.573 66.2982L159.675 66.2294C165.941 62.0267 172.217 57.8163 176.841 54.5212C179.15 52.8759 181.069 51.4433 182.374 50.3459C183.021 49.8021 183.552 49.3113 183.907 48.8997C184.08 48.6996 184.255 48.4681 184.37 48.2216C184.463 48.0214 184.66 47.4983 184.333 46.9794C184.006 46.4608 183.449 46.4128 183.229 46.4104C182.957 46.4075 182.672 46.4655 182.417 46.5347C181.892 46.677 181.22 46.9441 180.45 47.2922C178.896 47.9948 176.774 49.1059 174.292 50.4765C169.322 53.2216 162.811 57.0606 156.312 60.8939L156.238 60.9376C149.755 64.7615 143.288 68.5756 138.337 71.3141C135.849 72.6904 133.766 73.7823 132.265 74.466C132.094 74.5439 131.933 74.6156 131.781 74.6812C131.878 74.5477 131.984 74.4063 132.097 74.257C133.096 72.9453 134.622 71.1563 136.516 69.0348C140.279 64.817 145.426 59.3614 150.586 53.8906L150.658 53.8142C155.836 48.3253 161.022 42.8269 164.8 38.587C166.686 36.4701 168.239 34.6469 169.268 33.2866C169.778 32.6125 170.188 32.0157 170.442 31.5351C170.566 31.3015 170.686 31.0368 170.743 30.7707C170.79 30.5544 170.865 30.0019 170.433 29.5686C170 29.1349 169.447 29.2101 169.23 29.2566C168.964 29.3137 168.699 29.4332 168.466 29.5571C167.985 29.8118 167.388 30.2211 166.715 30.731C165.355 31.7601 163.532 33.3134 161.415 35.1997C157.176 38.9776 151.678 44.1637 146.19 49.3417L146.128 49.4004C140.652 54.5659 135.191 59.7183 130.97 63.4854C128.848 65.3786 127.059 66.9046 125.747 67.9033C125.597 68.0178 125.454 68.1241 125.32 68.2221C125.386 68.069 125.458 67.9062 125.537 67.7337C126.22 66.2331 127.312 64.1503 128.689 61.6622C131.425 56.7162 135.236 50.2578 139.056 43.7815L139.112 43.6878C142.946 37.1891 146.785 30.6793 149.53 25.7086C150.901 23.2267 152.012 21.105 152.714 19.5506C153.062 18.7804 153.329 18.1076 153.47 17.5824C153.539 17.3271 153.597 17.0422 153.594 16.7698C153.591 16.5476 153.541 15.9927 153.023 15.6669C152.505 15.341 151.983 15.536 151.782 15.6297C151.535 15.7444 151.303 15.9197 151.103 16.0923C150.69 16.4474 150.199 16.979 149.655 17.6258C148.558 18.9311 147.125 20.8504 145.481 23.1595C142.186 27.7843 137.978 34.0617 133.777 40.3291L133.737 40.3899C129.543 46.6457 125.36 52.8864 122.079 57.4994C120.431 59.8164 119.025 61.7015 117.967 62.9665C117.843 63.115 117.725 63.2533 117.613 63.3813C117.644 63.2143 117.679 63.036 117.718 62.8464C118.049 61.2311 118.649 58.9574 119.437 56.2251C121.001 50.7959 123.276 43.6547 125.557 36.4929L125.592 36.3802C127.882 29.1906 130.175 21.9888 131.743 16.5313C132.526 13.8064 133.136 11.4902 133.473 9.81819C133.64 8.98971 133.75 8.27411 133.771 7.73008C133.781 7.46559 133.773 7.17466 133.709 6.90953C133.656 6.69213 133.482 6.16436 132.906 5.96286C132.329 5.76142 131.865 6.06583 131.688 6.2028C131.472 6.36985 131.285 6.59263 131.128 6.80574C130.805 7.24407 130.445 7.8721 130.059 8.6241C129.281 10.1418 128.314 12.3329 127.228 14.9514C125.052 20.1958 122.357 27.2558 119.666 34.3044L119.641 34.3704C116.954 41.4067 114.274 48.4264 112.108 53.6573C111.02 56.2844 110.072 58.4362 109.323 59.9056C109.234 60.0819 109.148 60.2463 109.066 60.3987C109.058 60.2262 109.052 60.0413 109.047 59.844C109.008 58.1958 109.084 55.8457 109.24 53.0067C109.55 47.3675 110.169 39.9022 110.789 32.4145L110.8 32.2896C111.423 24.7706 112.047 17.2389 112.353 11.5689C112.506 8.73796 112.582 6.34389 112.536 4.63836C112.513 3.7933 112.459 3.07086 112.357 2.53549C112.307 2.27516 112.234 1.99301 112.111 1.74882C112.01 1.54741 111.722 1.07511 111.118 1.00728C110.513 0.939407 110.127 1.33661 109.984 1.51072C109.81 1.72174 109.677 1.98085 109.571 2.22374C109.353 2.72326 109.141 3.41602 108.932 4.23516C108.511 5.88839 108.056 8.24013 107.58 11.0351C106.627 16.6331 105.573 24.1172 104.521 31.589L104.509 31.6695C103.46 39.1247 102.412 46.5612 101.466 52.1409C100.991 54.9444 100.546 57.2533 100.143 58.8522C100.094 59.0457 100.047 59.2264 100.001 59.3943C99.9542 59.2262 99.9065 59.0454 99.8576 58.8518C99.4535 57.2531 99.006 54.9446 98.5285 52.1414C97.5746 46.5426 96.5178 39.0734 95.4603 31.5921L95.4376 31.4313C94.3892 24.0138 93.341 16.5974 92.3974 11.0396C91.9229 8.24451 91.4705 5.89307 91.053 4.24007C90.8461 3.42094 90.637 2.72902 90.4227 2.23038C90.3186 1.98806 90.1877 1.72979 90.0175 1.51911C89.8809 1.35017 89.4966 0.939214 88.8839 1.00712C88.2708 1.07508 87.9859 1.56065 87.8897 1.75562C87.7699 1.99863 87.6991 2.2794 87.6508 2.53863C87.5515 3.07211 87.4998 3.79299 87.4783 4.63745C87.435 6.3416 87.5113 8.73477 87.664 11.5656C87.9697 17.2352 88.5876 24.7675 89.205 32.2876L89.2107 32.3573C89.8271 39.8644 90.442 47.3539 90.7501 53.0077C90.9048 55.847 90.9806 58.1976 90.9431 59.8463C90.939 60.0297 90.9334 60.2023 90.9266 60.3642C90.8505 60.2214 90.771 60.0684 90.6882 59.9053C89.9417 58.4351 88.9938 56.2829 87.9059 53.656C85.7442 48.4366 83.0677 41.437 80.3834 34.4172L80.3405 34.3051C77.6456 27.2574 74.9454 20.1985 72.7684 14.9543C71.6814 12.3358 70.7147 10.145 69.9377 8.6272C69.5526 7.87511 69.1937 7.24737 68.8726 6.80923C68.7165 6.59629 68.5307 6.37373 68.3168 6.20653C68.1442 6.07157 67.678 5.75988 67.0976 5.96292C66.517 6.16599 66.3469 6.70036 66.296 6.91354C66.233 7.17762 66.2265 7.46752 66.2373 7.73128C66.2594 8.27399 66.3702 8.98856 66.538 9.8166C66.8769 11.4876 67.487 13.8032 68.2698 16.528C69.8374 21.9854 72.1274 29.1877 74.4142 36.3782L74.438 36.4531C76.72 43.6283 78.9964 50.786 80.5624 56.2248C81.3491 58.9572 81.9493 61.231 82.2815 62.8461C82.319 63.0285 82.3527 63.2005 82.3825 63.362C82.2747 63.2379 82.161 63.1044 82.0415 62.9614C80.9845 61.6957 79.5789 59.8104 77.9305 57.4935C74.6554 52.89 70.4806 46.6663 66.2938 40.4246L66.2278 40.326C62.0246 34.06 57.8139 27.7841 54.5185 23.1601C52.8731 20.8514 51.4403 18.9324 50.3428 17.6272C49.799 16.9804 49.3082 16.4489 48.8967 16.0937C48.6966 15.9211 48.4653 15.7458 48.2189 15.6309C48.0192 15.5377 47.4963 15.3402 46.9771 15.6668C46.4577 15.9935 46.4096 16.5507 46.4072 16.7712C46.4043 17.043 46.4623 17.3274 46.5315 17.5824C46.6738 18.107 46.9409 18.7793 47.2891 19.5492C47.9916 21.1031 49.1027 23.2246 50.4733 25.7064C53.2184 30.6769 57.0574 37.1872 60.8907 43.6865L60.9312 43.7553C64.7562 50.2406 68.5717 56.7099 71.3109 61.6625C72.6872 64.1509 73.7791 66.2338 74.4628 67.7344C74.5407 67.9055 74.6124 68.0671 74.678 68.2192C74.5445 68.1217 74.4031 68.0161 74.2539 67.9025C72.9422 66.9035 71.1532 65.3774 69.0317 63.4841C64.814 59.72 59.3583 54.5733 53.8877 49.4125L53.8114 49.3405C48.3228 44.1627 42.8246 38.9768 38.5852 35.1992C36.4685 33.313 34.6456 31.7598 33.2855 30.7309C32.6116 30.221 32.0149 29.8117 31.5345 29.557C31.3009 29.4332 31.0361 29.3137 30.77 29.2566Z" fill="#FF611E" stroke="#031926" stroke-width="2"/>
</svg>
