<svg width="73" height="73" viewBox="0 0 73 73" fill="none" xmlns="http://www.w3.org/2000/svg">
<path d="M50.9697 50.8118L51.5615 69.1736L38.0606 56.7155L37.3313 56.0425L36.6528 56.7666L24.0954 70.1677L23.3616 51.8173L23.3219 50.8258L22.3302 50.8577L3.9684 51.4495L16.4265 37.9487L17.0995 37.2194L16.3753 36.5408L2.97427 23.9834L21.3247 23.2496L22.3163 23.21L22.2842 22.2181L21.6913 3.856L35.1933 16.3145L35.9226 16.9875L36.6011 16.2634L49.1586 2.8623L49.8924 21.2127L49.932 22.2043L50.9238 22.1723L69.286 21.5793L56.8274 35.0813L56.1545 35.8106L56.8786 36.4892L70.2797 49.0466L51.9292 49.7804L50.9377 49.82L50.9697 50.8118Z" fill="#FF611E" stroke="#031926" stroke-width="2"/>
</svg>
