<svg width="228" height="228" viewBox="0 0 228 228" fill="none" xmlns="http://www.w3.org/2000/svg">
<mask id="path-1-inside-1_1185_2849" fill="white">
<path d="M114 0L118.474 14.1365C132.852 59.562 168.438 95.148 213.864 109.526L228 114L213.864 118.474C168.438 132.852 132.852 168.438 118.474 213.864L114 228L109.526 213.864C95.148 168.438 59.562 132.852 14.1365 118.474L0 114L14.1365 109.526C59.562 95.148 95.148 59.562 109.526 14.1365L114 0Z"/>
</mask>
<path d="M114 0L118.474 14.1365C132.852 59.562 168.438 95.148 213.864 109.526L228 114L213.864 118.474C168.438 132.852 132.852 168.438 118.474 213.864L114 228L109.526 213.864C95.148 168.438 59.562 132.852 14.1365 118.474L0 114L14.1365 109.526C59.562 95.148 95.148 59.562 109.526 14.1365L114 0Z" fill="#DCF7E7"/>
<path d="M114 0L115.907 -0.603513L114 -6.62786L112.093 -0.603513L114 0ZM228 114L228.604 115.907L234.628 114L228.604 112.093L228 114ZM114 228L112.093 228.604L114 234.628L115.907 228.604L114 228ZM0 114L-0.603513 112.093L-6.62786 114L-0.603513 115.907L0 114ZM14.1365 118.474L13.533 120.381L14.1365 118.474ZM213.864 118.474L213.26 116.568L213.864 118.474ZM118.474 213.864L116.568 213.26L118.474 213.864ZM213.864 109.526L213.26 111.432L213.864 109.526ZM112.093 0.603513L116.568 14.74L120.381 13.533L115.907 -0.603513L112.093 0.603513ZM213.26 111.432L227.396 115.907L228.604 112.093L214.467 107.619L213.26 111.432ZM227.396 112.093L213.26 116.568L214.467 120.381L228.604 115.907L227.396 112.093ZM116.568 213.26L112.093 227.396L115.907 228.604L120.381 214.467L116.568 213.26ZM115.907 227.396L111.432 213.26L107.619 214.467L112.093 228.604L115.907 227.396ZM14.74 116.568L0.603513 112.093L-0.603513 115.907L13.533 120.381L14.74 116.568ZM0.603513 115.907L14.74 111.432L13.533 107.619L-0.603513 112.093L0.603513 115.907ZM111.432 14.74L115.907 0.603513L112.093 -0.603513L107.619 13.533L111.432 14.74ZM14.74 111.432C60.7861 96.8583 96.8583 60.7861 111.432 14.74L107.619 13.533C93.4377 58.3379 58.3379 93.4377 13.533 107.619L14.74 111.432ZM111.432 213.26C96.8583 167.214 60.7861 131.142 14.74 116.568L13.533 120.381C58.3378 134.562 93.4377 169.662 107.619 214.467L111.432 213.26ZM213.26 116.568C167.214 131.142 131.142 167.214 116.568 213.26L120.381 214.467C134.562 169.662 169.662 134.562 214.467 120.381L213.26 116.568ZM116.568 14.74C131.142 60.7861 167.214 96.8583 213.26 111.432L214.467 107.619C169.662 93.4377 134.562 58.3379 120.381 13.533L116.568 14.74Z" fill="#031926" mask="url(#path-1-inside-1_1185_2849)"/>
</svg>
